<svg version="1.1" viewBox="0.0 0.0 571.8188976377953 524.0262467191601" fill="none" stroke="none" stroke-linecap="square" stroke-miterlimit="10" xmlns:xlink="http://www.w3.org/1999/xlink" xmlns="http://www.w3.org/2000/svg"><clipPath id="p.0"><path d="m0 0l571.8189 0l0 524.02625l-571.8189 0l0 -524.02625z" clip-rule="nonzero"/></clipPath><g clip-path="url(#p.0)"><path fill="#000000" fill-opacity="0.0" d="m0 0l571.8189 0l0 524.02625l-571.8189 0z" fill-rule="evenodd"/><path fill="#000000" d="m0 258.56693l0 0c0 -142.80257 118.40129 -258.56693 264.4567 -258.56693l0 0c70.138275 0 137.40387 27.241795 186.99911 75.7325c49.595245 48.490707 77.45758 114.258224 77.45758 182.83443l0 0c0 142.80258 -118.401306 258.56693 -264.4567 258.56693l0 0c-146.0554 0 -264.4567 -115.76434 -264.4567 -258.56693z" fill-rule="evenodd"/><path stroke="#00ffff" stroke-width="8.0" stroke-linejoin="round" stroke-linecap="butt" d="m0 258.56693l0 0c0 -142.80257 118.40129 -258.56693 264.4567 -258.56693l0 0c70.138275 0 137.40387 27.241795 186.99911 75.7325c49.595245 48.490707 77.45758 114.258224 77.45758 182.83443l0 0c0 142.80258 -118.401306 258.56693 -264.4567 258.56693l0 0c-146.0554 0 -264.4567 -115.76434 -264.4567 -258.56693z" fill-rule="evenodd"/><path fill="#000000" fill-opacity="0.0" d="m63.33858 92.480316l402.2362 0l0 319.9685l-402.2362 0z" fill-rule="evenodd"/><path fill="#ffffff" d="m133.88039 339.5603l0 -136.40623l-51.578117 0l0 -37.1875l146.5625 0l0 37.1875l-52.8125 0l0 136.40623l-42.171875 0zm124.75246 0l0 -173.59373l37.6875 0l63.25 102.906235l-27.03125 -0.234375l63.984375 -102.67186l36.203125 0l0 173.59373l-40.921875 0l0 -54.0625q0 -22.328125 1.109375 -40.17186q1.125 -17.859375 3.84375 -35.46875l4.71875 12.890625l-48.109375 74.656235l-16.375 0l-47.109375 -74.156235l4.703125 -13.390625q2.734375 16.609375 3.84375 34.09375q1.125 17.48436 1.125 41.54686l0 54.0625l-40.921875 0z" fill-rule="nonzero"/></g></svg>